<svg id="Layer_1" enable-background="new 0 0 501.367 501.367" height="512" viewBox="0 0 501.367 501.367" width="512" xmlns="http://www.w3.org/2000/svg"><g id="XMLID_2517_"><path id="XMLID_2872_" d="m415.677 328.41c-3.215 6.515-23.25 47.11-26.477 53.648-7.165 1.041-51.996 7.555-59.209 8.603 5.186 5.054 37.625 36.674 42.845 41.762-1.224 7.137-8.882 51.786-10.114 58.971 6.409-3.37 46.504-24.45 52.956-27.843 0-.057 10.61-49.245 10.61-49.245s-10.611-85.571-10.611-85.896z" fill="#f4d844"/><path id="XMLID_2869_" d="m85.677 328.427c-3.215 6.515-23.243 47.095-26.469 53.632-7.166 1.041-51.995 7.554-59.208 8.603 5.185 5.054 37.624 36.674 42.844 41.762-1.224 7.137-8.882 51.786-10.114 58.971 6.43-3.381 46.494-24.445 52.947-27.838 0-.057 15-48.584 15-48.584s-15-86.156-15-86.546z" fill="#f4d844"/><path id="XMLID_2866_" d="m171.375 390.662c-7.166-1.041-51.997-7.555-59.21-8.603-3.205-6.493-23.253-47.115-26.478-53.652l-.005.011-.005.01v135.13l.005-.003.005-.003c6.409 3.37 46.506 24.451 52.958 27.844-1.224-7.138-8.883-51.787-10.115-58.971 5.186-5.056 37.626-36.676 42.845-41.763z" fill="#ecbd2c"/><path id="XMLID_2863_" d="m64.47 411.609c3.71 3.617 6.898 6.725 10.608 10.342-.876 5.106-1.628 9.495-2.504 14.602 4.583-2.409 8.521-4.48 13.104-6.889l5.333-10.358-5.333-23.093c-2.29 4.64-4.257 8.626-6.547 13.265-5.128.747-9.534 1.387-14.661 2.131z" fill="#ecbd2c"/><path id="XMLID_2860_" d="m85.687 429.658c4.586 2.411 8.527 4.483 13.113 6.895-.876-5.107-1.628-9.495-2.504-14.602 3.71-3.617 6.898-6.725 10.608-10.342-5.127-.744-9.533-1.385-14.661-2.131-2.293-4.646-4.264-8.639-6.557-13.285l-.005.011-.005.01v33.45l.005-.003z" fill="#e58f22"/><path id="XMLID_2857_" d="m250.677 295.092c-8.636 17.499-26.795 54.293-31.891 64.619-19.311 2.806-59.914 8.706-71.31 10.361 13.974 13.622 43.355 42.261 51.6 50.299-3.298 19.232-10.234 59.672-12.181 71.021 17.273-9.08 53.59-28.174 63.782-33.531 0-.071 12.333-61.668 12.333-61.668s-12.333-99.148-12.333-101.101z" fill="#f4d844"/><g id="XMLID_2754_"><path id="XMLID_2854_" d="m10.677 249.973v15h82.5l7.5-48.75-7.5-48.75c-45.489 0-82.5 37.008-82.5 82.5z" fill="#dd4e4e"/><path id="XMLID_2851_" d="m93.177 167.473v97.5h42.5l31.147-40.666-15.269-32.578c-15.229-15.232-36.143-24.256-58.378-24.256z" fill="#c21456"/><path id="XMLID_2848_" d="m408.177 167.473 7.5 48.75-7.5 48.75c-14.878 0-27.622 0-42.5 0l-30.25-33.125 14.371-40.119c15.138-15.139 36.017-24.256 58.379-24.256z" fill="#a7cafc"/><path id="XMLID_2845_" d="m490.677 249.973v15h-82.5v-97.5c45.491 0 82.5 37.009 82.5 82.5z" fill="#8493fb"/><path id="XMLID_2844_" d="m408.177 83.098 7.5 57.188-7.5 57.188c-31.532 0-57.188-25.652-57.188-57.188.001-31.533 25.654-57.188 57.188-57.188z" fill="#edbba7"/><path id="XMLID_2841_" d="m465.365 140.285c0 31.533-25.654 57.188-57.188 57.188v-114.375c31.533 0 57.188 25.654 57.188 57.187z" fill="#e8a38b"/><path id="XMLID_2840_" d="m135.677 249.973v15h115l15-65-15-65c-63.569 0-115 51.734-115 115z" fill="#bfe85f"/><path id="XMLID_2839_" d="m365.677 264.973c0-5.246 0-9.754 0-15 0-63.393-51.593-115-115-115v130z" fill="#00cb76"/><path id="XMLID_2836_" d="m173.177 87.473c0 42.732 34.766 77.5 77.5 77.5l15-77.5-15-77.5c-42.732 0-77.5 34.765-77.5 77.5z" fill="#edbba7"/><path id="XMLID_2760_" d="m328.177 87.473c0-42.731-34.765-77.5-77.5-77.5v155c42.733 0 77.5-34.765 77.5-77.5z" fill="#e8a38b"/><path id="XMLID_2759_" d="m35.99 140.285c0 31.533 25.653 57.188 57.188 57.188l7.5-57.188-7.5-57.188c-31.533.001-57.188 25.655-57.188 57.188z" fill="#edbba7"/><path id="XMLID_2755_" d="m93.177 83.098v114.375c31.533 0 57.188-25.654 57.188-57.188s-25.655-57.187-57.188-57.187z" fill="#e8a38b"/></g><g fill="#ecbd2c"><path id="XMLID_2747_" d="m353.879 370.072c-19.312-2.806-59.916-8.706-71.312-10.361-8.636-17.5-26.794-54.293-31.891-64.619v162.77c17.273 9.08 53.59 28.174 63.782 33.531-3.299-19.232-10.235-59.672-12.182-71.02 13.976-13.623 43.358-42.263 51.603-50.301z"/><path id="XMLID_2681_" d="m211.944 391.02c6.773 6.603 12.594 12.276 19.367 18.879-1.599 9.322-2.973 17.332-4.572 26.654 8.372-4.401 15.566-8.183 23.938-12.584l7.667-24.253-7.667-36.837c-4.186 8.482-7.783 15.77-11.969 24.252-9.36 1.359-17.403 2.529-26.764 3.889z"/><path id="XMLID_2645_" d="m501.367 390.662c-7.165-1.041-51.996-7.555-59.209-8.603-3.205-6.493-23.253-47.115-26.479-53.65v.001l-.001.001v135.142h.001v-.001c6.409 3.37 46.506 24.451 52.958 27.844-1.224-7.138-8.882-51.787-10.114-58.971 5.185-5.056 37.624-36.676 42.844-41.763z"/><path id="XMLID_2641_" d="m394.462 411.609c3.711 3.616 6.898 6.725 10.608 10.342-.876 5.106-1.629 9.494-2.505 14.602 4.586-2.411 8.526-4.482 13.112-6.894l5.667-13.275-5.667-20.189c-2.293 4.647-4.262 8.638-6.555 13.283-5.127.746-9.533 1.386-14.66 2.131z"/></g><path id="XMLID_2561_" d="m274.616 436.553c-1.599-9.322-2.973-17.333-4.572-26.656 6.774-6.602 12.594-12.274 19.367-18.877-9.36-1.359-17.404-2.529-26.765-3.889-4.186-8.483-7.783-15.771-11.969-24.252v61.09c8.373 4.401 15.567 8.182 23.939 12.584z" fill="#e58f22"/><path id="XMLID_2546_" d="m415.679 429.658c4.587 2.411 8.528 4.483 13.114 6.895-.876-5.107-1.629-9.495-2.505-14.602 3.71-3.617 6.898-6.726 10.608-10.342-5.127-.745-9.533-1.386-14.66-2.131-2.293-4.646-4.264-8.639-6.558-13.285v.001l-.001.001v33.464z" fill="#e58f22"/></g></svg>