<?xml version="1.0" encoding="iso-8859-1"?>
<!-- Generator: Adobe Illustrator 19.0.0, SVG Export Plug-In . SVG Version: 6.00 Build 0)  -->
<svg version="1.1" id="Capa_1" xmlns="http://www.w3.org/2000/svg" xmlns:xlink="http://www.w3.org/1999/xlink" x="0px" y="0px"
	 viewBox="0 0 512 512" style="enable-background:new 0 0 512 512;" xml:space="preserve">
<g>
	<rect x="55.542" y="215.606" style="fill:#FFCB57;" width="64.631" height="40.394"/>
	<rect x="7.069" y="352.947" style="fill:#FFCB57;" width="32.316" height="88.868"/>
</g>
<rect x="7.069" y="352.947" style="fill:#FF9A4A;" width="16.158" height="88.868"/>
<rect x="475.645" y="352.947" style="fill:#FFCB57;" width="32.316" height="88.868"/>
<rect x="475.645" y="352.947" style="fill:#FF9A4A;" width="16.158" height="88.868"/>
<polygon style="fill:#24A1BA;" points="338.304,102.501 459.487,102.501 459.487,134.817 55.542,134.817 55.542,102.501 
	176.726,102.501 "/>
<rect x="225.199" y="95.432" width="64.631" height="15.148"/>
<rect x="192.884" y="95.432" width="16.158" height="15.148"/>
<rect x="305.988" y="95.432" width="16.158" height="15.148"/>
<rect x="184.805" y="134.817" style="fill:#FFCB57;" width="72.71" height="40.394"/>
<path d="M265.594,183.29h-87.858v-55.542h87.858V183.29z M192.884,168.142h57.562v-25.247h-57.562V168.142z"/>
<path d="M402.935,183.29h-79.779v-55.542h79.779V183.29z M338.304,168.142h49.483v-25.247h-49.483V168.142z"/>
<g>
	<rect x="394.856" y="134.817" style="fill:#FFCB57;" width="64.631" height="40.394"/>
	<rect x="257.515" y="175.211" style="fill:#FFCB57;" width="72.71" height="40.394"/>
	<rect x="330.225" y="215.606" style="fill:#FFCB57;" width="64.631" height="40.394"/>
</g>
<path d="M495.842,345.878V62.107h-15.148v57.562h-17.168V95.432H335.274v15.148h113.105v17.168H59.582V110.58h114.114V95.432H44.434
	v32.316H31.306V62.107H16.158v283.771H0v104.016h47.464V345.878H31.306V256h17.168v8.079h32.316v-15.148H63.621v-25.247h49.483
	v25.247H95.937v15.148h367.59h4.039v-16.158h13.128v97.957h-16.158v104.016H512V345.878H495.842z M32.316,361.026v73.72H15.148
	v-73.72h1.01h15.148H32.316z M48.473,168.142v15.148v25.247v15.148v17.168H31.306v-97.957h13.128h4.039V168.142z M113.105,208.536
	H63.621V183.29h49.483V208.536z M113.105,168.142H63.621v-25.247h49.483V168.142z M177.736,248.931h-49.483v-25.247h49.483V248.931z
	 M177.736,208.536h-49.483V183.29h49.483V208.536z M177.736,168.142h-49.483v-25.247h49.483V168.142z M250.446,248.931h-57.562
	v-25.247h57.562V248.931z M250.446,208.536h-57.562V183.29h57.562V208.536z M250.446,168.142h-57.562v-25.247h57.562V168.142z
	 M323.156,248.931h-57.562v-25.247h57.562V248.931z M323.156,208.536h-57.562V183.29h57.562V208.536z M323.156,168.142h-57.562
	v-25.247h57.562V168.142z M383.748,248.931h-45.444v-25.247h45.444V248.931z M383.748,208.536h-45.444V183.29h45.444V208.536z
	 M387.787,168.142h-4.039h-45.444v-25.247h49.483V168.142z M448.379,248.931h-45.444v-25.247h45.444V248.931z M448.379,208.536
	h-45.444V183.29h45.444V208.536z M452.418,168.142h-49.483v-25.247h49.483V168.142z M467.566,232.773V183.29v-48.473h13.128v97.957
	H467.566z M496.852,434.746h-17.168v-73.72h17.168V434.746z"/>
<rect x="63.621" y="434.746" width="161.578" height="15.148"/>
<rect x="289.83" y="434.746" width="161.578" height="15.148"/>
<rect x="249.436" y="434.746" width="16.158" height="15.148"/>
<g>
</g>
<g>
</g>
<g>
</g>
<g>
</g>
<g>
</g>
<g>
</g>
<g>
</g>
<g>
</g>
<g>
</g>
<g>
</g>
<g>
</g>
<g>
</g>
<g>
</g>
<g>
</g>
<g>
</g>
</svg>
