<svg height="512pt" viewBox="-4 0 511 512" width="512pt" xmlns="http://www.w3.org/2000/svg"><path d="m455.613281 138.160156h-4.0625c-6.734375 0-12.191406-5.460937-12.191406-12.191406v-44.699219h-16.253906v44.699219c0 6.730469-5.457031 12.1875-12.191407 12.1875h-4.0625c-4.488281 0-8.128906 3.640625-8.128906 8.128906 0 4.488282 3.640625 8.125 8.128906 8.125h48.761719c4.488281 0 8.125-3.636718 8.125-8.125 0-4.488281-3.636719-8.125-8.125-8.125zm0 0" fill="#ffe09f"/><path d="m423.105469 104.921875c2.648437.441406 5.351562.730469 8.125.730469 2.777343 0 5.480469-.289063 8.128906-.730469v-23.652344h-16.253906zm0 0" fill="#f6d190"/><path d="m463.738281 65.015625h-65.015625c-22.40625 0-40.632812-18.230469-40.632812-40.632813v-8.128906c0-4.488281 3.632812-8.125 8.125-8.125h130.03125c4.492187 0 8.128906 3.636719 8.128906 8.125v8.128906c-.003906 22.402344-18.230469 40.632813-40.636719 40.632813zm-89.394531-40.632813c0 13.441407 10.933594 24.378907 24.378906 24.378907h65.015625c13.445313 0 24.382813-10.9375 24.382813-24.378907zm0 0" fill="#ffeaa8"/><path d="m33.007812 422.601562h65.015626c4.488281 0 8.128906 3.640626 8.128906 8.128907v73.140625h-81.269532v-73.140625c0-4.488281 3.636719-8.128907 8.125-8.128907zm0 0" fill="#ecbd83"/><path d="m41.136719 446.984375v-24.382813h-8.128907c-4.488281 0-8.125 3.640626-8.125 8.128907v73.140625h81.269532v-24.378906h-32.507813c-17.953125 0-32.507812-14.554688-32.507812-32.507813zm0 0" fill="#e2a975"/><path d="m154.914062 341.332031h65.015626c4.488281 0 8.125 3.640625 8.125 8.128907v154.410156h-81.269532v-154.410156c0-4.488282 3.640625-8.128907 8.128906-8.128907zm0 0" fill="#f6d190"/><path d="m163.039062 446.984375v-105.652344h-8.125c-4.488281 0-8.128906 3.640625-8.128906 8.128907v154.410156h81.269532v-24.378906h-32.507813c-17.953125 0-32.507813-14.554688-32.507813-32.507813zm0 0" fill="#ecbd83"/><path d="m398.722656 178.792969h65.015625c4.488281 0 8.128907 3.640625 8.128907 8.128906v316.949219h-81.269532v-316.949219c0-4.488281 3.636719-8.128906 8.125-8.128906zm0 0" fill="#ffeaa8"/><path d="m406.851562 446.984375v-268.191406h-8.128906c-4.488281 0-8.125 3.640625-8.125 8.128906v316.949219h81.269532v-24.378906h-32.507813c-17.957031 0-32.507813-14.554688-32.507813-32.507813zm0 0" fill="#ffe09f"/><path d="m276.816406 260.0625h65.019532c4.484374 0 8.125 3.640625 8.125 8.128906v235.683594h-81.269532v-235.683594c0-4.488281 3.636719-8.128906 8.125-8.128906zm0 0" fill="#ffe09f"/><path d="m284.945312 446.984375v-186.921875h-8.128906c-4.488281 0-8.125 3.640625-8.125 8.128906v235.683594h81.269532v-24.382812h-32.507813c-17.953125 0-32.507813-14.554688-32.507813-32.507813zm0 0" fill="#f6d190"/><path d="m398.722656 8.128906v47.363282c0 16.980468 12.414063 32.140624 29.316406 33.75 19.386719 1.851562 35.699219-13.347657 35.699219-32.351563v-48.761719c0-4.488281-3.636719-8.128906-8.125-8.128906h-48.761719c-4.492187 0-8.128906 3.640625-8.128906 8.128906zm0 0" fill="#ffeaa8"/><path d="m374.890625 102.808594c-1.597656-2.445313-4.4375-3.886719-7.289063-3.667969l-65.402343 3.863281c-4.484375.261719-7.90625 4.109375-7.636719 8.589844.261719 4.476562 4.261719 7.980469 8.585938 7.632812l34.121093-2.015624-316.894531 211.265624c-3.738281 2.488282-4.746094 7.535157-2.253906 11.269532 1.5625 2.347656 4.140625 3.617187 6.769531 3.617187 1.546875 0 3.109375-.4375 4.5-1.363281l317.859375-211.90625-16.273438 31.761719c-2.046874 3.996093-.464843 8.894531 3.527344 10.941406 1.1875.605469 2.449219.894531 3.695313.894531 2.953125 0 5.804687-1.613281 7.238281-4.421875l29.875-58.3125c1.332031-2.597656 1.164062-5.707031-.421875-8.148437zm0 0" fill="#e2a975"/><path d="m488.121094 512h-479.492188c-4.492187 0-8.128906-3.640625-8.128906-8.128906 0-4.484375 3.636719-8.125 8.128906-8.125h479.488282c4.492187 0 8.128906 3.640625 8.128906 8.125 0 4.488281-3.632813 8.128906-8.125 8.128906zm0 0" fill="#dad8db"/><path d="m414.976562 55.492188v-55.492188h-8.125c-4.492187 0-8.128906 3.636719-8.128906 8.128906v47.363282c0 16.980468 12.414063 32.140624 29.316406 33.75 3.90625.375 7.769532.039062 11.316407-.867188-14.234375-3.851562-24.378907-17.667969-24.378907-32.882812zm0 0" fill="#ffe09f"/></svg>