<svg id="Capa_1" enable-background="new 0 0 512 512" height="512" viewBox="0 0 512 512" width="512" xmlns="http://www.w3.org/2000/svg"><g><path d="m373.975 501.851v-46.175l41.891-115.725c8.622-23.819 4.88-50.353-9.997-70.871l-63.926-88.169-39.225 52.517-53.367 255.586v12.836c0 5.605 4.544 10.149 10.149 10.149h104.327c5.604.001 10.148-4.543 10.148-10.148z" fill="#fed2a4"/><path d="m405.869 269.081-63.926-88.169-9.849 13.186 43.329 59.761c14.876 20.518 18.619 47.052 9.997 70.871l-38.178 105.466c-2.457 6.787-3.714 13.95-3.714 21.169 0 25.081-20.332 45.413-45.413 45.413h-48.765v5.074c0 5.605 4.544 10.149 10.149 10.149h104.327c5.605 0 10.149-4.544 10.149-10.149v-46.175l41.891-115.725c8.622-23.819 4.879-50.353-9.997-70.871z" fill="#ffbd86"/><g><path d="m311.071 311.888h-187.858c-17.475 0-31.642-14.167-31.642-31.642v-248.604c0-17.475 14.167-31.642 31.642-31.642h198.38c17.475 0 31.642 14.167 31.642 31.642v238.081c.001 23.287-18.877 42.165-42.164 42.165z" fill="#fd4755"/><path d="m321.594 0h-3.392c2.911 4.787 4.588 10.407 4.588 16.419v53.616c0 125.164-101.466 226.63-226.63 226.63 5.551 9.127 15.59 15.223 27.054 15.223h187.858c23.287 0 42.165-18.878 42.165-42.165v-238.081c-.001-17.475-14.168-31.642-31.643-31.642z" fill="#fb2b3a"/><path d="m278.408 190.487-28.211-28.211c-3.497-3.497-3.497-9.167 0-12.664l28.211-28.211c5.927-5.927 5.927-15.535 0-21.462-5.927-5.927-15.535-5.927-21.462 0l-28.21 28.21c-3.497 3.497-9.167 3.497-12.664 0l-28.211-28.211c-5.927-5.927-15.535-5.927-21.462 0-5.926 5.926-5.926 15.535 0 21.462l28.211 28.211c3.497 3.497 3.497 9.167 0 12.664l-28.211 28.211c-5.927 5.927-5.927 15.535 0 21.462 5.927 5.927 15.535 5.927 21.462 0l28.211-28.211c3.497-3.497 9.167-3.497 12.664 0l28.211 28.211c5.927 5.927 15.535 5.927 21.462 0 5.926-5.926 5.926-15.535-.001-21.461z" fill="#fff"/></g><path d="m276.84 357.922h-96.987c-12.712 0-23.017-10.305-23.017-23.017 0-12.712 10.305-23.017 23.017-23.017h96.987z" fill="#ffbd86"/><path d="m302.179 403.956h-96.987c-12.712 0-23.017-10.305-23.017-23.017 0-12.712 10.305-23.017 23.017-23.017h96.987z" fill="#ffbd86"/><path d="m249.351 496.777v-23.171c0-9.935-2.565-19.701-7.446-28.354l-.24-.426c-22.25-39.443-17.091-88.611 12.862-122.599l10.326-11.717c7.45-8.454 11.229-19.516 10.504-30.751l-6.023-93.366c-1.008-15.619 6.756-30.506 20.153-38.643 12.706-7.718 29.262-.853 32.747 13.579l30.79 127.505c2.438 10.098 8.771 18.821 17.617 24.268l6.576 4.049z" fill="#fed2a4"/><g><path d="m274.264 178.197c12.706-7.718 29.262-.853 32.747 13.579l30.79 127.505c.026.112.053.224.081.335 3.911 15.892 25.033 19.331 34.012 5.648l1.086-1.655c2.32-3.535 1.262-8.289-2.339-10.506-8.846-5.446-15.178-14.17-17.617-24.267l-30.79-127.506c-3.485-14.431-20.041-21.296-32.747-13.579-12.052 7.32-19.522 20.107-20.171 33.971 1.551-1.279 3.199-2.463 4.948-3.525z" fill="#ffbd86"/></g></g></svg>