<svg id="Capa_1" enable-background="new 0 0 512.646 512.646" height="512" viewBox="0 0 512.646 512.646" width="512" xmlns="http://www.w3.org/2000/svg"><g><g><path d="m236.84 191.446c-3.524 66.588 5.122 91.926 25.378 91.926 6.934 0 13.441-5.828 19.321-16.235 4.672-16.203 7.573-40.71 10.146-75.691z" fill="#ffe07d"/><path d="m262.218 278.372c-15.753 0-21.371-23.242-25.378-86.926h-15.878c5.521 75.078 12.555 101.926 35.361 101.926 12.18 0 19.861-7.662 25.216-26.235-5.796 7.811-12.387 11.235-19.321 11.235z" fill="#ffc250"/><path d="m497.647 375.069h-33.158l-5 119.754 45.658-5v-107.254c0-4.142-3.358-7.5-7.5-7.5z" fill="#bfc5eb"/><path d="m464.489 486.323v-111.254h-7.5c-4.142 0-7.5 3.358-7.5 7.5v114.754c0 4.142 3.358 7.5 7.5 7.5h40.658c4.142 0 7.5-3.358 7.5-7.5v-7.5h-37.158c-1.933 0-3.5-1.567-3.5-3.5z" fill="#8a94db"/><path d="m421.117 191.446h-33.158l-5 119.754 45.658-5v-107.254c0-4.142-3.358-7.5-7.5-7.5z" fill="#8a94db"/><path d="m387.959 302.7v-111.254h-7.5c-4.142 0-7.5 3.358-7.5 7.5v114.754c0 4.142 3.358 7.5 7.5 7.5h40.658c4.142 0 7.5-3.358 7.5-7.5v-7.5h-37.158c-1.933 0-3.5-1.567-3.5-3.5z" fill="#717ed4"/><path d="m497.647 7.823h-33.158l-5 119.754 45.658-5v-107.254c0-4.142-3.358-7.5-7.5-7.5z" fill="#f5fcff"/><path d="m464.489 119.078v-111.255h-7.5c-4.142 0-7.5 3.358-7.5 7.5v114.754c0 4.142 3.358 7.5 7.5 7.5h40.658c4.142 0 7.5-3.358 7.5-7.5v-7.5h-37.158c-1.933.001-3.5-1.566-3.5-3.499z" fill="#d6e0f4"/><path d="m55.658 375.069h-33.158l-5 119.754 45.658-5v-107.254c0-4.142-3.358-7.5-7.5-7.5z" fill="#f5fcff"/><path d="m22.5 486.323v-111.254h-7.5c-4.142 0-7.5 3.358-7.5 7.5v114.754c0 4.142 3.358 7.5 7.5 7.5h40.658c4.142 0 7.5-3.358 7.5-7.5v-7.5h-37.158c-1.933 0-3.5-1.567-3.5-3.5z" fill="#d6e0f4"/><path d="m132.187 191.446h-33.157l-5 119.754 45.658-5v-107.254c-.001-4.142-3.358-7.5-7.501-7.5z" fill="#d97b7b"/><path d="m99.03 302.7v-111.254h-7.5c-4.142 0-7.5 3.358-7.5 7.5v114.754c0 4.142 3.358 7.5 7.5 7.5h40.658c4.142 0 7.5-3.358 7.5-7.5v-7.5h-37.158c-1.933 0-3.5-1.567-3.5-3.5z" fill="#ca4646"/><path d="m55.658 7.823h-33.158l-5 119.754 45.658-5v-107.254c0-4.142-3.358-7.5-7.5-7.5z" fill="#e7afaf"/><path d="m22.5 119.078v-111.255h-7.5c-4.142 0-7.5 3.358-7.5 7.5v114.754c0 4.142 3.358 7.5 7.5 7.5h40.658c4.142 0 7.5-3.358 7.5-7.5v-7.5h-37.158c-1.933.001-3.5-1.566-3.5-3.499z" fill="#d97b7b"/></g><g><path d="m497.646 512.323h-40.657c-8.271 0-15-6.729-15-15v-49.877h-41.201c-4.143 0-7.5-3.357-7.5-7.5v-111.246h-12.829c-8.271 0-15-6.729-15-15v-12.467c0-4.143 3.357-7.5 7.5-7.5s7.5 3.357 7.5 7.5v12.467h40.658v-114.754h-40.658v72.287c0 4.143-3.357 7.5-7.5 7.5s-7.5-3.357-7.5-7.5v-72.287c0-8.271 6.729-15 15-15h12.829v-111.246c0-4.143 3.357-7.5 7.5-7.5h41.201v-49.877c0-8.271 6.729-15 15-15h40.657c8.271 0 15 6.729 15 15v114.755c0 8.271-6.729 15-15 15h-40.657c-8.271 0-15-6.729-15-15v-49.878h-33.701v103.746h12.829c8.271 0 15 6.729 15 15v114.754c0 8.271-6.729 15-15 15h-12.829v103.746h33.701v-49.877c0-8.271 6.729-15 15-15h40.657c8.271 0 15 6.729 15 15v114.754c0 8.272-6.728 15-15 15zm-40.657-129.754v114.754h40.657v-114.754zm0-367.246v114.755h40.657v-114.755zm-401.331 497h-40.658c-8.271 0-15-6.729-15-15v-114.754c0-8.271 6.729-15 15-15h40.658c8.271 0 15 6.729 15 15v49.877h33.701v-103.746h-12.829c-8.271 0-15-6.729-15-15v-114.754c0-8.271 6.729-15 15-15h12.829v-103.746h-33.701v49.878c0 8.271-6.729 15-15 15h-40.658c-8.271 0-15-6.729-15-15v-114.755c0-8.271 6.729-15 15-15h40.658c8.271 0 15 6.729 15 15v49.877h41.201c4.142 0 7.5 3.357 7.5 7.5v111.246h12.829c8.271 0 15 6.729 15 15v13.371c0 4.143-3.358 7.5-7.5 7.5s-7.5-3.357-7.5-7.5v-13.371h-40.658v114.754h40.658v-71.383c0-4.143 3.358-7.5 7.5-7.5s7.5 3.357 7.5 7.5v71.383c0 8.271-6.729 15-15 15h-12.829v111.246c0 4.143-3.358 7.5-7.5 7.5h-41.201v49.877c0 8.272-6.729 15-15 15zm-40.658-129.754v114.754h40.658v-114.754zm0-367.246v114.755h40.667l-.009-114.755zm240.874 404.035c-4.142 0-7.5-3.357-7.5-7.5v-35c0-4.143 3.358-7.5 7.5-7.5s7.5 3.357 7.5 7.5v35c0 4.143-3.358 7.5-7.5 7.5zm-70.529-16.905c-1.144 0-2.305-.263-3.395-.817-3.691-1.878-5.162-6.394-3.284-10.085l15.87-31.195c1.878-3.692 6.393-5.164 10.085-3.284 3.692 1.878 5.163 6.394 3.284 10.085l-15.87 31.195c-1.323 2.602-3.957 4.101-6.69 4.101zm141.056 0c-2.732 0-5.366-1.499-6.69-4.102l-15.869-31.195c-1.878-3.691-.408-8.207 3.284-10.085 3.691-1.878 8.207-.407 10.085 3.284l15.869 31.195c1.878 3.691.408 8.207-3.284 10.085-1.089.555-2.251.818-3.395.818zm-46.897-73.753h-46.361c-4.142 0-7.5-3.357-7.5-7.5s3.358-7.5 7.5-7.5h15.681v-13.685c-10.442-2.529-16.501-10.301-20.337-18.34-10.706-.288-22.474-1.949-32.32-11.278-11.149-10.565-17.582-28.8-20.241-57.386-.195-2.101.503-4.187 1.924-5.746 1.421-1.56 3.434-2.448 5.543-2.448h31.088c-.337-4.071-.67-8.34-1-12.821-.153-2.079.566-4.128 1.986-5.655 1.419-1.526 3.41-2.395 5.494-2.395h70.723c2.085 0 4.075.868 5.494 2.395s2.139 3.576 1.985 5.655c-.329 4.48-.661 8.75-.999 12.821h31.089c2.11 0 4.122.889 5.544 2.448 1.421 1.56 2.119 3.646 1.924 5.746-2.659 28.586-9.091 46.82-20.241 57.386-9.846 9.329-21.614 10.99-32.319 11.278-3.836 8.04-9.894 15.811-20.338 18.34v13.685h15.681c4.143 0 7.5 3.357 7.5 7.5s-3.358 7.5-7.5 7.5zm-50.445-129.754c5.853 73.232 13.881 86.925 27.265 86.925s21.413-13.692 27.265-86.925zm67.752 20.871c-2.06 20.836-4.367 35.513-7.29 46.602 13.673-1.272 26.315-8.102 31.355-46.602zm-105.04 0c5.04 38.5 17.682 45.329 31.354 46.602-2.922-11.089-5.23-25.766-7.29-46.602zm118.75-63.424c-1.145 0-2.306-.263-3.395-.817-3.692-1.878-5.162-6.394-3.284-10.085l15.869-31.195c1.878-3.692 6.396-5.163 10.085-3.284 3.692 1.878 5.162 6.394 3.284 10.085l-15.869 31.195c-1.323 2.602-3.958 4.101-6.69 4.101zm-109.294 0c-2.733 0-5.367-1.499-6.69-4.102l-15.87-31.195c-1.878-3.691-.408-8.207 3.284-10.085 3.691-1.881 8.207-.408 10.085 3.284l15.87 31.195c1.878 3.691.408 8.207-3.284 10.085-1.09.555-2.251.818-3.395.818zm54.647-13.105c-4.142 0-7.5-3.357-7.5-7.5v-35c0-4.143 3.358-7.5 7.5-7.5s7.5 3.357 7.5 7.5v35c0 4.143-3.358 7.5-7.5 7.5z"/></g></g></svg>